# xmcd
#
# Track frame offsets: 
#        150
#        13945
#        31832
#        43104
#        54256
#        79111
#        101573
#        115492
#        130464
#        147300
#        162402
#        178369
#
# Disc length: 2611 seconds
#
# Revision: 7
# Processed by: cddbd v1.5.2PL0 Copyright (c) Steve Scherf et al.
# Submitted via: ExactAudioCopyFreeDBPlugin 1.0
#
DISCID=a90a310c
DTITLE=Billy Bragg - England, Half-English
DYEAR=2002
DGENRE=Bragg,Billy
TTITLE0=St. Monday
TTITLE1=Jane Allen
TTITLE2=Distant Shore
TTITLE3=England, Half-English
TTITLE4=NPWA (No Power Without Accountability)
TTITLE5=Some Days I See the Point
TTITLE6=Baby Faroukh
TTITLE7=Take Down the Union Jack
TTITLE8=Another Kind of Judy
TTITLE9=He'll Go Down
TTITLE10=Dreadbelly
TTITLE11=Tears of My Tracks
EXTD=YEAR: 2002
EXTT0=
EXTT1=
EXTT2=
EXTT3=
EXTT4=
EXTT5=
EXTT6=
EXTT7=
EXTT8=
EXTT9=
EXTT10=
EXTT11=
PLAYORDER=
